<?xml version="1.0" encoding="UTF-8"?>
<svg width="156px" height="64px" viewBox="0 0 156 64" version="1.1" xmlns="http://www.w3.org/2000/svg" xmlns:xlink="http://www.w3.org/1999/xlink">
    <!-- Generator: Sketch 52.6 (67491) - http://www.bohemiancoding.com/sketch -->
    <title>chainsaw_icon</title>
    <desc>Created with Sketch.</desc>
    <g id="Page-1" stroke="none" stroke-width="1" fill="none" fill-rule="evenodd">
        <g id="milling" transform="translate(-169.000000, -616.000000)">
            <g id="chainsaw" transform="translate(145.000000, 563.000000)">
                <g id="chainsaw_icon" transform="translate(24.000000, 53.000000)">
                    <path d="M43.6195693,15.3016657 L60.6368868,10.7189063 C63.5840819,9.92522743 66.7032673,10.0495097 69.5779723,11.075159 L75.345248,13.1328318 C79.94452,14.7737794 83.4571387,18.5508422 84.7605207,23.2569241 L86.3407536,28.9626238 C88.358297,36.2473067 84.0884367,43.7882509 76.8037538,45.8057942 C76.7963449,45.8078462 76.7889343,45.8098919 76.7815219,45.8119314 L36.6171248,56.8628999 L14.3687678,62.455745 C11.7159554,63.1226153 8.90576486,62.6736977 6.59273543,61.2135525 L5.27950326,60.3845489 C3.0006202,58.9459592 1.4042322,56.6429986 0.856734184,54.0042311 L0.766342593,53.5685722 C0.272433494,51.1880863 0.662651323,48.7091971 1.86400698,46.5955737 L8.11097719,35.6048713 C9.45510036,33.2400677 11.7045618,31.5248511 14.3408014,30.8546242 L32.7413521,26.1765422 L33.7458834,23.8467223 C35.5596212,19.6401013 39.196187,16.4928814 43.6195693,15.3016657 Z" id="Path-2" stroke="#000000" fill="#000000"></path>
                    <path d="M16.6747012,35.0157834 L30.1949379,31.5 L29.0546896,34.5916871 C27.9746926,37.5200079 27.8350436,40.7122892 28.6552006,43.7237338 L31,52.3333455 L12.5129737,57.8494515 C11.1214944,58.2646371 9.62037166,58.0874135 8.36383548,57.3596014 L8.36383548,57.3596014 C7.10938101,56.632995 6.21784379,55.4128506 5.90678648,53.9969212 L5.69749331,53.044221 C5.24762804,50.9964393 5.55087502,48.8551206 6.55164835,47.0127739 L10.4041401,39.920633 C11.7254024,37.4882907 13.9957589,35.7124118 16.6747012,35.0157834 Z" id="Path-3" fill="#F0F0F0"></path>
                    <path d="M83,19.027205 L87.3629913,36 L145.278268,20.8367136 C150.139715,18.3281217 151.90328,14.7872199 150.568963,10.2140083 C149.234646,5.64079677 145.805709,3.59183319 140.282152,4.06711759 L83,19.027205 Z" id="Path-4" stroke="#000000" fill="#000000"></path>
                    <polygon id="Path-5" fill="#000000" points="83 18 87.250705 16.8241253 88 14 84.5173896 15.2121569"></polygon>
                    <polygon id="Path-5" fill="#000000" points="91 16 95.250705 14.8241253 96 12 92.5173896 13.2121569"></polygon>
                    <polygon id="Path-5" fill="#000000" points="99 14 103.250705 12.8241253 104 10 100.51739 11.2121569"></polygon>
                    <polygon id="Path-5" fill="#000000" points="107 12 111.250705 10.8241253 112 8 108.51739 9.21215691"></polygon>
                    <polygon id="Path-5" fill="#000000" points="114 10 118.250705 8.82412534 119 6 115.51739 7.21215691"></polygon>
                    <polygon id="Path-5" fill="#000000" points="122 8 126.250705 6.82412534 127 4 123.51739 5.21215691"></polygon>
                    <polygon id="Path-5" fill="#000000" points="130 5 134.250705 3.82412534 135 1 131.51739 2.21215691"></polygon>
                    <polygon id="Path-5" fill="#000000" transform="translate(90.785602, 37.136481) rotate(179.000000) translate(-90.785602, -37.136481) " points="88.036036 39.2252938 92.711087 37.9972209 93.5351676 35.0476684 89.7048913 36.31364"></polygon>
                    <polygon id="Path-5" fill="#000000" transform="translate(98.820776, 35.183483) rotate(178.000000) translate(-98.820776, -35.183483) " points="96.071223 37.2722798 100.746265 36.0442341 101.570328 33.0946856 97.7400605 34.3606349"></polygon>
                    <polygon id="Path-5" fill="#000000" transform="translate(107.500000, 33.000000) rotate(180.000000) translate(-107.500000, -33.000000) " points="105 35 109.250705 33.8241253 110 31 106.51739 32.2121569"></polygon>
                    <polygon id="Path-5" fill="#000000" transform="translate(114.785602, 31.136481) rotate(179.000000) translate(-114.785602, -31.136481) " points="112.036036 33.2252938 116.711087 31.9972209 117.535168 29.0476684 113.704891 30.31364"></polygon>
                    <polygon id="Path-5" fill="#000000" transform="translate(122.785602, 29.136481) rotate(179.000000) translate(-122.785602, -29.136481) " points="120.036036 31.2252938 124.711087 29.9972209 125.535168 27.0476684 121.704891 28.31364"></polygon>
                    <polygon id="Path-5" fill="#000000" transform="translate(129.785627, 27.136514) rotate(-179.000000) translate(-129.785627, -27.136514) " points="127.036037 29.2253593 131.711102 27.9972311 132.535218 25.0476688 128.704926 26.3136857"></polygon>
                    <polygon id="Path-5" fill="#000000" transform="translate(137.785602, 25.136481) rotate(179.000000) translate(-137.785602, -25.136481) " points="135.036036 27.2252938 139.711087 25.9972209 140.535168 23.0476684 136.704891 24.31364"></polygon>
                    <polygon id="Path-5" fill="#000000" transform="translate(145.562151, 23.280612) rotate(179.000000) translate(-145.562151, -23.280612) " points="143.038655 25.5175246 144.829708 24.632069 147.261566 23.9932529 148.085646 21.0437004 144.25537 22.309672"></polygon>
                    <polygon id="Path-5" fill="#000000" transform="translate(140.918962, 2.532077) rotate(7.000000) translate(-140.918962, -2.532077) " points="138.251093 4.7555959 142.762617 3.25816344 143.586832 0.308557718 139.756515 1.5747152"></polygon>
                    <polygon id="Path-5" fill="#000000" transform="translate(148.627686, 3.548412) rotate(39.000000) translate(-148.627686, -3.548412) " points="145.808444 5.83138882 148.410519 4.75945708 150.581921 4.53481619 151.446927 1.26543552 147.616947 2.53223441"></polygon>
                    <polygon id="Path-5" fill="#000000" transform="translate(152.609539, 10.075623) rotate(83.000000) translate(-152.609539, -10.075623) " points="149.791145 12.3587042 152.392566 11.2868831 154.563507 11.0624683 155.427933 7.7925427 151.598875 9.0591166"></polygon>
                    <polygon id="Path-5" fill="#000000" transform="translate(152.581802, 17.621487) rotate(132.000000) translate(-152.581802, -17.621487) " points="149.763473 19.9036417 152.365051 18.832523 154.536264 18.6085961 155.400131 15.3393313 151.570777 16.604917"></polygon>
                </g>
            </g>
        </g>
    </g>
</svg>