<?xml version="1.0" encoding="UTF-8"?>
<svg width="29px" height="40px" viewBox="0 0 29 40" version="1.1" xmlns="http://www.w3.org/2000/svg" xmlns:xlink="http://www.w3.org/1999/xlink">
    <!-- Generator: Sketch 52.6 (67491) - http://www.bohemiancoding.com/sketch -->
    <title>Path 7</title>
    <desc>Created with Sketch.</desc>
    <g id="Page-1" stroke="none" stroke-width="1" fill="none" fill-rule="evenodd">
        <g id="card" transform="translate(-640.000000, -286.000000)" fill="#000000">
            <path d="M645.483825,286.579649 L640,289.901228 C640.351497,298.51214 642.225032,305.962987 645.620605,312.253767 C649.016179,318.544547 654.1153,323.043571 660.917969,325.750837 L666.069207,323.098629 C668.033302,322.087379 668.805736,319.675386 667.794486,317.711291 C667.61789,317.368298 667.392604,317.052657 667.125627,316.774174 L662.791992,312.253767 L658.832031,314.741072 C655.904209,313.415533 653.543207,311.32634 651.749023,308.473494 C649.95484,305.620647 648.892666,302.266806 648.5625,298.41197 L653.089844,295.328962 L651.425126,288.985621 C650.864359,286.848839 648.677564,285.571227 646.540783,286.131994 C646.168774,286.229622 645.81279,286.380393 645.483825,286.579649 Z" id="Path-7"></path>
        </g>
    </g>
</svg>