<?xml version="1.0" encoding="UTF-8"?>
<svg width="29px" height="40px" viewBox="0 0 29 40" version="1.1" xmlns="http://www.w3.org/2000/svg" xmlns:xlink="http://www.w3.org/1999/xlink">
    <!-- Generator: Sketch 52.6 (67491) - http://www.bohemiancoding.com/sketch -->
    <title>phone_icon</title>
    <desc>Created with Sketch.</desc>
    <g id="Page-1" stroke="none" stroke-width="1" fill="none" fill-rule="evenodd">
        <g id="home" transform="translate(-26.000000, -85.000000)" fill="#F0F0F0">
            <g id="menu">
                <path d="M31.4838246,85.5796487 L26,88.9012279 C26.3514967,97.5121402 28.2250319,104.962987 31.6206055,111.253767 C35.0161791,117.544547 40.1153002,122.043571 46.9179688,124.750837 L52.0692074,122.098629 C54.0333024,121.087379 54.805736,118.675386 53.7944863,116.711291 C53.6178904,116.368298 53.3926041,116.052657 53.1256269,115.774174 L48.7919922,111.253767 L44.8320313,113.741072 C41.9042091,112.415533 39.5432065,110.32634 37.7490234,107.473494 C35.9548404,104.620647 34.8926659,101.266806 34.5625,97.4119701 L39.0898438,94.3289623 L37.4251265,87.9856208 C36.8643594,85.8488392 34.6775641,84.5712271 32.5407826,85.1319942 C32.1687741,85.2296224 31.8127904,85.3803925 31.4838246,85.5796487 Z" id="phone_icon"></path>
            </g>
        </g>
    </g>
</svg>