<?xml version="1.0" encoding="UTF-8"?>
<svg width="150px" height="78px" viewBox="0 0 150 78" version="1.1" xmlns="http://www.w3.org/2000/svg" xmlns:xlink="http://www.w3.org/1999/xlink">
    <!-- Generator: Sketch 52.6 (67491) - http://www.bohemiancoding.com/sketch -->
    <title>saw_icon</title>
    <desc>Created with Sketch.</desc>
    <g id="Page-1" stroke="none" stroke-width="1" fill="none" fill-rule="evenodd">
        <g id="milling" transform="translate(-172.000000, -450.000000)">
            <g id="saw" transform="translate(145.000000, 413.000000)">
                <g id="saw_icon" transform="translate(27.000000, 37.000000)">
                    <path d="M3,75.5 L146.732342,75.5" id="Line" stroke="#000000" stroke-width="5" stroke-linecap="square"></path>
                    <path d="M2.68417907,72 C1.98769328,71.0384367 1.4277903,69.9599894 1.00447014,68.7646583 C0.581149972,67.5693271 0.246326593,65.7373315 0,63.2686714 C2.03445395,64.7988628 3.75365667,65.5639584 5.15760814,65.5639584 C7.26353536,65.5639584 6.35481958,65.6361959 9.17968272,65.2062548 C9.71103874,64.918909 11.0837159,64.7666997 12.0187788,62.7828978 C12.4398857,61.8894897 13.1013166,61.0199592 12.9852405,58.9121925 C12.8157439,55.8343905 9.92126494,52.7858883 8.80877321,47.6325861 C8.45995404,46.0167803 8.58359054,43.0078355 9.17968272,38.6057518 C11.3522442,41.3120558 13.0911938,42.8654293 14.3965315,43.2658721 C15.7018693,43.6663149 17.6605686,43.3122853 20.2726294,42.2037835 C22.6814005,40.3429196 23.4096763,37.6092728 22.4574568,34.0028431 C21.7637794,31.3756139 21.8006428,25.2415375 23.9177656,22.0269874 C24.5769724,21.0260755 25.3395869,19.8701214 26.2056088,18.5591252 C26.9688272,21.0502235 27.7767895,22.7025362 28.6294959,23.5160634 C29.4822023,24.3295906 31.1815707,25.0694047 33.7276013,25.7355057 C36.2733543,24.6034779 37.9330543,23.5759437 38.706701,22.6529032 C39.4803478,21.7298628 40.0172709,20.1365987 40.3174706,17.873111 C41.4257731,13.9232065 42.5571127,11.0655138 43.7114892,9.3000328 C44.8658657,7.53455185 46.6587261,5.92003025 49.0900703,4.45646802 C48.7374191,7.58202835 48.9057046,9.7241388 49.5949266,10.8827993 C50.6287597,12.6207902 52.4438228,14.4589756 55.1604042,14.6613887 C56.9714584,14.7963308 58.9695641,13.8239087 61.1547213,11.7441225 C63.3304075,8.30951843 65.2378173,5.88030028 66.8769507,4.45646802 C68.516084,3.03263575 71.115334,1.54714641 74.6747006,0 C73.5355006,3.51608618 73.2255792,5.95422724 73.7449366,7.31442318 C74.5239726,9.3547171 75.2681763,12.301306 80.897068,11.7441225 C86.5259598,11.186939 88.7417007,6.63539856 92.2298608,5.37998907 C94.5553009,4.5430494 97.5272952,4.23520905 101.145844,4.45646802 C98.423314,7.34909315 97.035527,9.4912036 96.9824829,10.8827993 C96.9029168,12.970193 97.9906757,16.3994743 102.298416,17.4012466 C107.664677,17.8127501 111.849674,15.1717501 116.204508,15.3529142 C119.10773,15.4736902 121.745775,16.3137558 124.118642,17.873111 C120.731045,19.5106166 118.744822,20.8952421 118.159974,22.0269874 C117.282703,23.7246055 117.025405,27.3343515 120.716498,30.1544451 C124.40759,32.9745386 126.502162,31.2611482 132.576952,32.8449645 C136.626812,33.900842 139.3926,35.526211 140.874315,37.7210716 C137.612648,38.0892251 135.487673,38.6035171 134.49939,39.2639475 C133.511107,39.924378 132.870294,41.2583528 132.576952,43.2658721 C132.473586,45.3091738 132.627454,46.7647452 133.038557,47.6325861 C133.44966,48.500427 134.71049,49.511865 136.821048,50.6668999 C140.024584,51.7724731 142.870932,53.3977546 145.360092,55.5427447 C147.849253,57.6877347 149.395889,60.1011191 150,62.7828978 C146.982448,61.8526609 144.827939,61.5886478 143.536476,61.9908584 C141.59928,62.5941743 139.963425,63.5106397 139.522003,66.6105631 C139.227722,68.6771788 139.678493,70.4736577 140.874315,72 L89.0555045,72 C87.1937048,65.3272389 82.7216457,61.9908584 75.6393274,61.9908584 C68.5570091,61.9908584 63.8520067,65.3272389 61.5243201,72 L2.68417907,72 Z" id="Path" fill="#000000"></path>
                </g>
            </g>
        </g>
    </g>
</svg>